<svg width="250" height="250" viewBox="0 0 250 250" fill="none" xmlns="http://www.w3.org/2000/svg">
<path fill-rule="evenodd" clip-rule="evenodd" d="M138.542 25.8387L153.823 38.8339C157.153 41.6653 161.289 43.3785 165.646 43.7313L185.64 45.347C195.825 46.1703 203.911 54.2562 204.734 64.4418L206.35 84.4354C206.703 88.7922 208.416 92.928 211.247 96.2582L224.243 111.538C230.862 119.323 230.862 130.758 224.243 138.542L211.247 153.823C208.416 157.153 206.703 161.289 206.35 165.646L204.734 185.64C203.911 195.825 195.825 203.911 185.64 204.734L165.646 206.35C161.289 206.703 157.153 208.416 153.823 211.247L138.542 224.243C130.758 230.862 119.323 230.862 111.538 224.243L96.2582 211.247C92.9281 208.416 88.7923 206.703 84.4354 206.35L64.4418 204.734C54.2562 203.911 46.1703 195.825 45.347 185.64L43.7308 165.646C43.378 161.289 41.6648 157.153 38.8334 153.823L25.8387 138.542C19.2191 130.758 19.2191 119.323 25.8387 111.538L38.8339 96.2582C41.6653 92.9281 43.3785 88.7923 43.7313 84.4354L45.347 64.4418C46.1703 54.2562 54.2562 46.1703 64.4418 45.347L84.4354 43.7308C88.7923 43.378 92.9281 41.6648 96.2582 38.8334L111.538 25.8387C119.323 19.2191 130.758 19.2191 138.542 25.8387ZM164.226 87.7836L114.583 137.696L90.6986 113.811L75.9686 128.541L114.583 167.156L178.956 102.514L164.226 87.7836Z" fill="#25C8B1"/>
</svg>
